<mxfile host="65bd71144e">
    <diagram id="_UCGj7l3UfsMOEP4gDHx" name="システムコンテキスト図">
        <mxGraphModel dx="1034" dy="584" grid="1" gridSize="10" guides="1" tooltips="1" connect="1" arrows="1" fold="1" page="1" pageScale="1" pageWidth="1169" pageHeight="827" math="0" shadow="0">
            <root>
                <mxCell id="0"/>
                <mxCell id="1" parent="0"/>
                <mxCell id="2" value="sobyo" style="shape=module;align=left;spacingLeft=20;align=center;verticalAlign=top;" vertex="1" parent="1">
                    <mxGeometry x="510" y="290" width="100" height="50" as="geometry"/>
                </mxCell>
                <mxCell id="7" style="edgeStyle=none;html=1;entryX=0.5;entryY=0.5;entryDx=0;entryDy=0;entryPerimeter=0;endArrow=none;endFill=0;" edge="1" parent="1" source="3" target="5">
                    <mxGeometry relative="1" as="geometry"/>
                </mxCell>
                <mxCell id="3" value="開発者" style="shape=umlActor;verticalLabelPosition=bottom;verticalAlign=top;html=1;" vertex="1" parent="1">
                    <mxGeometry x="247.5" y="310" width="30" height="60" as="geometry"/>
                </mxCell>
                <mxCell id="8" style="edgeStyle=none;html=1;entryX=0.5;entryY=0.5;entryDx=0;entryDy=0;entryPerimeter=0;endArrow=none;endFill=0;" edge="1" parent="1" source="4" target="5">
                    <mxGeometry relative="1" as="geometry"/>
                </mxCell>
                <mxCell id="4" value="設計者" style="shape=umlActor;verticalLabelPosition=bottom;verticalAlign=top;html=1;" vertex="1" parent="1">
                    <mxGeometry x="247.5" y="210" width="30" height="60" as="geometry"/>
                </mxCell>
                <mxCell id="9" style="edgeStyle=none;html=1;endArrow=none;endFill=0;exitX=0.5;exitY=0.5;exitDx=0;exitDy=0;exitPerimeter=0;" edge="1" parent="1" source="5" target="2">
                    <mxGeometry relative="1" as="geometry"/>
                </mxCell>
                <mxCell id="5" value="メインユーザ" style="shape=umlActor;verticalLabelPosition=bottom;verticalAlign=top;html=1;" vertex="1" parent="1">
                    <mxGeometry x="400" y="285" width="30" height="60" as="geometry"/>
                </mxCell>
                <mxCell id="6" value="ノンエンジニア" style="shape=umlActor;verticalLabelPosition=bottom;verticalAlign=top;html=1;" vertex="1" parent="1">
                    <mxGeometry x="820" y="360" width="30" height="60" as="geometry"/>
                </mxCell>
                <mxCell id="11" value="マネージャ" style="shape=umlActor;verticalLabelPosition=bottom;verticalAlign=top;html=1;" vertex="1" parent="1">
                    <mxGeometry x="820" y="250" width="30" height="60" as="geometry"/>
                </mxCell>
                <mxCell id="17" style="edgeStyle=none;html=1;entryX=0.5;entryY=0;entryDx=0;entryDy=0;endArrow=none;endFill=0;" edge="1" parent="1" source="16" target="2">
                    <mxGeometry relative="1" as="geometry"/>
                </mxCell>
                <mxCell id="16" value="EnterpriseArchitectの軽量web版的なモデリングツール。&lt;br&gt;EAはWindows環境/ライセンスが必要だったりで導入しづらい。Draw.ioはお絵かきツールとしては良いのだが、「同一の要素」を複数の図をまたがって扱えないので、モデリングツールとしては物足りない。そのあたりを解消するGUIモデリングツールを目指したい" style="shape=note;whiteSpace=wrap;html=1;backgroundOutline=1;darkOpacity=0.05;size=9;" vertex="1" parent="1">
                    <mxGeometry x="300" y="120" width="390" height="100" as="geometry"/>
                </mxCell>
                <mxCell id="1LOcL0q4Qscsnd4KKA9_-27" style="edgeStyle=none;html=1;endArrow=none;endFill=0;entryX=1;entryY=1;entryDx=0;entryDy=0;entryPerimeter=0;exitX=0.237;exitY=-0.075;exitDx=0;exitDy=0;exitPerimeter=0;" edge="1" parent="1" source="19" target="5">
                    <mxGeometry relative="1" as="geometry"/>
                </mxCell>
                <mxCell id="19" value="&lt;span&gt;定義した要素を複数の図から参照・編集できるようにしたい&lt;br&gt;&lt;/span&gt;" style="shape=note;whiteSpace=wrap;html=1;backgroundOutline=1;darkOpacity=0.05;size=14;" vertex="1" parent="1">
                    <mxGeometry x="470" y="430" width="190" height="60" as="geometry"/>
                </mxCell>
                <mxCell id="1LOcL0q4Qscsnd4KKA9_-31" style="edgeStyle=none;html=1;entryX=0;entryY=1;entryDx=0;entryDy=0;entryPerimeter=0;endArrow=none;endFill=0;" edge="1" parent="1" source="1LOcL0q4Qscsnd4KKA9_-19" target="5">
                    <mxGeometry relative="1" as="geometry"/>
                </mxCell>
                <mxCell id="1LOcL0q4Qscsnd4KKA9_-19" value="&lt;span&gt;html,PNGなどのファイルにアウトプットしてオフラインでも閲覧できるようにしたい&lt;br&gt;&lt;/span&gt;" style="shape=note;whiteSpace=wrap;html=1;backgroundOutline=1;darkOpacity=0.05;size=14;" vertex="1" parent="1">
                    <mxGeometry x="150" y="425" width="160" height="70" as="geometry"/>
                </mxCell>
                <mxCell id="1LOcL0q4Qscsnd4KKA9_-21" style="edgeStyle=none;html=1;entryX=1;entryY=0.5;entryDx=0;entryDy=0;endArrow=none;endFill=0;" edge="1" parent="1" source="1LOcL0q4Qscsnd4KKA9_-20" target="2">
                    <mxGeometry relative="1" as="geometry"/>
                </mxCell>
                <mxCell id="1LOcL0q4Qscsnd4KKA9_-22" style="edgeStyle=none;html=1;entryX=0.5;entryY=0.5;entryDx=0;entryDy=0;entryPerimeter=0;endArrow=none;endFill=0;" edge="1" parent="1" source="1LOcL0q4Qscsnd4KKA9_-20" target="11">
                    <mxGeometry relative="1" as="geometry"/>
                </mxCell>
                <mxCell id="1LOcL0q4Qscsnd4KKA9_-23" style="edgeStyle=none;html=1;entryX=0.5;entryY=0.5;entryDx=0;entryDy=0;entryPerimeter=0;endArrow=none;endFill=0;" edge="1" parent="1" source="1LOcL0q4Qscsnd4KKA9_-20" target="6">
                    <mxGeometry relative="1" as="geometry"/>
                </mxCell>
                <mxCell id="1LOcL0q4Qscsnd4KKA9_-20" value="その他ユーザ" style="shape=umlActor;verticalLabelPosition=bottom;verticalAlign=top;html=1;" vertex="1" parent="1">
                    <mxGeometry x="700" y="285" width="30" height="60" as="geometry"/>
                </mxCell>
                <mxCell id="1LOcL0q4Qscsnd4KKA9_-25" style="edgeStyle=none;html=1;entryX=0.75;entryY=0.1;entryDx=0;entryDy=0;entryPerimeter=0;endArrow=none;endFill=0;" edge="1" parent="1" source="1LOcL0q4Qscsnd4KKA9_-24" target="1LOcL0q4Qscsnd4KKA9_-20">
                    <mxGeometry relative="1" as="geometry"/>
                </mxCell>
                <mxCell id="1LOcL0q4Qscsnd4KKA9_-24" value="&lt;span&gt;基本的には閲覧しかしない。閲覧環境に制限があるなど&lt;br&gt;&lt;/span&gt;" style="shape=note;whiteSpace=wrap;html=1;backgroundOutline=1;darkOpacity=0.05;size=14;" vertex="1" parent="1">
                    <mxGeometry x="720" y="180" width="160" height="50" as="geometry"/>
                </mxCell>
                <mxCell id="1LOcL0q4Qscsnd4KKA9_-28" style="edgeStyle=none;html=1;endArrow=none;endFill=0;exitX=0.211;exitY=0;exitDx=0;exitDy=0;exitPerimeter=0;" edge="1" parent="1" source="1LOcL0q4Qscsnd4KKA9_-26" target="5">
                    <mxGeometry relative="1" as="geometry"/>
                </mxCell>
                <mxCell id="1LOcL0q4Qscsnd4KKA9_-26" value="&lt;span&gt;定義した要素の関連をマトリクスで表示し、分析できるようにしたい&lt;br&gt;&lt;/span&gt;" style="shape=note;whiteSpace=wrap;html=1;backgroundOutline=1;darkOpacity=0.05;size=14;" vertex="1" parent="1">
                    <mxGeometry x="370" y="590" width="190" height="60" as="geometry"/>
                </mxCell>
                <mxCell id="1LOcL0q4Qscsnd4KKA9_-30" style="edgeStyle=none;html=1;entryX=1;entryY=1;entryDx=0;entryDy=0;entryPerimeter=0;endArrow=none;endFill=0;exitX=0.197;exitY=-0.051;exitDx=0;exitDy=0;exitPerimeter=0;" edge="1" parent="1" source="1LOcL0q4Qscsnd4KKA9_-29" target="5">
                    <mxGeometry relative="1" as="geometry"/>
                </mxCell>
                <mxCell id="1LOcL0q4Qscsnd4KKA9_-29" value="&lt;span&gt;図からだけではなく、&lt;/span&gt;要素を&lt;span&gt;&lt;br&gt;一覧上でサクサクと定義・編集できるようにしたい&lt;br&gt;&lt;/span&gt;" style="shape=note;whiteSpace=wrap;html=1;backgroundOutline=1;darkOpacity=0.05;size=14;" vertex="1" parent="1">
                    <mxGeometry x="430" y="510" width="190" height="60" as="geometry"/>
                </mxCell>
                <mxCell id="1LOcL0q4Qscsnd4KKA9_-33" style="edgeStyle=none;html=1;entryX=0.232;entryY=0.866;entryDx=0;entryDy=0;entryPerimeter=0;endArrow=none;endFill=0;" edge="1" parent="1" source="1LOcL0q4Qscsnd4KKA9_-32" target="5">
                    <mxGeometry relative="1" as="geometry"/>
                </mxCell>
                <mxCell id="1LOcL0q4Qscsnd4KKA9_-32" value="&lt;span&gt;リアルタイムに共同編集したい&lt;br&gt;&lt;/span&gt;" style="shape=note;whiteSpace=wrap;html=1;backgroundOutline=1;darkOpacity=0.05;size=14;" vertex="1" parent="1">
                    <mxGeometry x="220" y="520" width="145" height="60" as="geometry"/>
                </mxCell>
            </root>
        </mxGraphModel>
    </diagram>
</mxfile>